<svg height="512" viewBox="0 0 512 512" width="512" xmlns="http://www.w3.org/2000/svg"><g id="Layer_14" data-name="Layer 14"><path d="m82.13 356.5a21.746 21.746 0 0 0 9.57-33.64 6.174 6.174 0 0 1 1.83-9.05l112.428-65.61a69.51 69.51 0 0 0 -9.088 81.454 68.174 68.174 0 0 0 37.65 30.934 68.753 68.753 0 0 1 -13.65-16.934c-18.87-32.98-7.7-75.15 24.95-94.21a67.541 67.541 0 0 1 55.66-5.744 67.98 67.98 0 0 0 -60.812-15.756l137.232-80.095a21.29 21.29 0 0 1 -10.592-7.779 22.1 22.1 0 0 1 -2.53-4.6 6.044 6.044 0 0 0 -8.67-2.91l-286.578 167.25a6.174 6.174 0 0 0 -1.83 9.05 21.644 21.644 0 0 1 -9.57 33.64 6.163 6.163 0 0 0 -3.11 8.85l52.65 91.97a6.037 6.037 0 0 0 9.14 1.7 21.887 21.887 0 0 1 5.57-3.43c.078-.033.157-.056.235-.088l-43.595-76.152a6.163 6.163 0 0 1 3.11-8.85z" fill="#d4e1f4"/><path d="m249.572 16.548a31.752 31.752 0 0 0 -43.623 11.42l-142.099 245.249 8.65 5.013 142.1-245.249a21.753 21.753 0 0 1 29.884-7.824l128.249 75.752 5.086-8.609z" fill="#1ae5be"/><path d="m258.4 50.093a11.249 11.249 0 0 0 -6.842 5.592 17.031 17.031 0 0 1 -1.417 2.25 16.309 16.309 0 0 1 -19.841 4.987 17.007 17.007 0 0 1 -3.458-2.123 10.968 10.968 0 0 0 -8.865-2.183 11.112 11.112 0 0 0 -7.55 5.352l-108.3 186.911 8.653 5.014 108.295-186.913a1.107 1.107 0 0 1 .758-.538.927.927 0 0 1 .784.187 27 27 0 0 0 5.492 3.371 26.349 26.349 0 0 0 32.051-8.1 26.91 26.91 0 0 0 2.251-3.577 1.187 1.187 0 0 1 .721-.616.908.908 0 0 1 .738.1l90 53.16 5.086-8.61-90-53.16a10.843 10.843 0 0 0 -8.556-1.104z" fill="#1ae5be"/><g fill="#0635c9"><path d="m495.377 253.668-84.31-147.28a31.955 31.955 0 0 0 -19.278-14.88l-.084-.022a31.945 31.945 0 0 0 -24.2 3.252l-339.132 197.928a32.3 32.3 0 0 0 -11.751 43.942l84.309 147.28a31.973 31.973 0 0 0 19.28 14.881 31.6 31.6 0 0 0 8.225 1.085 31.933 31.933 0 0 0 16.058-4.317l339.132-197.927a32.3 32.3 0 0 0 11.751-43.942zm-6.477 21.756a22.155 22.155 0 0 1 -10.316 13.55l-339.13 197.926a21.752 21.752 0 0 1 -29.843-7.98l-84.311-147.28a22.3 22.3 0 0 1 8.114-30.34l339.133-197.925a21.873 21.873 0 0 1 11-2.957 21.615 21.615 0 0 1 5.635.744l.069.018a21.9 21.9 0 0 1 13.141 10.175l84.308 147.282a22.164 22.164 0 0 1 2.2 16.787z"/><path d="m409.036 145.106a10.849 10.849 0 0 0 -6.891-5.2 11.25 11.25 0 0 0 -8.709 1.475 17.133 17.133 0 0 1 -2.345 1.256 16.3 16.3 0 0 1 -19.71-5.478 17.062 17.062 0 0 1 -1.956-3.557 10.961 10.961 0 0 0 -6.626-6.282 11.125 11.125 0 0 0 -9.209.917l-286.582 167.263a11.221 11.221 0 0 0 -5.352 7.55 11.05 11.05 0 0 0 2.085 8.87 16.989 16.989 0 0 1 2.073 3.482 16.629 16.629 0 0 1 -9.41 22.411 10.975 10.975 0 0 0 -6.528 6.573 11.238 11.238 0 0 0 .8 9.453l52.649 91.973a11.13 11.13 0 0 0 7.756 5.456 10.917 10.917 0 0 0 8.962-2.429 16.724 16.724 0 0 1 4.293-2.64 16.35 16.35 0 0 1 19.406 5.39 17.141 17.141 0 0 1 1.974 3.472 10.962 10.962 0 0 0 6.64 6.135 11.11 11.11 0 0 0 9.12-.946l286.48-167.2a11.241 11.241 0 0 0 5.333-7.46 11.055 11.055 0 0 0 -1.953-8.807 17.155 17.155 0 0 1 -1.648-2.706 16.631 16.631 0 0 1 7.148-22.077 11.376 11.376 0 0 0 5.586-6.843 10.973 10.973 0 0 0 -1.023-8.577zm43.781 97.266a1.3 1.3 0 0 1 -.657.788 26.954 26.954 0 0 0 -3.579 2.272 26.685 26.685 0 0 0 -7.873 33.034 27.134 27.134 0 0 0 2.619 4.3 1.027 1.027 0 0 1 .168.832 1.238 1.238 0 0 1 -.576.817l-286.479 167.194a1.1 1.1 0 0 1 -.917.1.927.927 0 0 1 -.588-.535 27.11 27.11 0 0 0 -3.124-5.5 26.5 26.5 0 0 0 -21.317-10.718 25.707 25.707 0 0 0 -10.067 2.038 26.785 26.785 0 0 0 -6.854 4.222.9.9 0 0 1 -.763.2 1.14 1.14 0 0 1 -.8-.573l-52.651-91.977a1.268 1.268 0 0 1 -.088-1.06.985.985 0 0 1 .581-.611 26.62 26.62 0 0 0 15.1-35.863 27 27 0 0 0 -3.3-5.53 1.031 1.031 0 0 1 -.181-.844 1.227 1.227 0 0 1 .576-.825l286.58-167.257a1.109 1.109 0 0 1 .926-.094.936.936 0 0 1 .59.552 27.046 27.046 0 0 0 3.1 5.648 26.354 26.354 0 0 0 31.863 8.813 27.148 27.148 0 0 0 3.726-2 1.193 1.193 0 0 1 .93-.179.9.9 0 0 1 .591.455l52.363 91.472a1.028 1.028 0 0 1 .101.829z"/><path d="m274.774 223.649a72.271 72.271 0 0 0 -55.469 7.47c-34.964 20.405-46.972 65.719-26.77 101.011a72.8 72.8 0 0 0 100.165 27.027c34.964-20.4 46.972-65.718 26.77-101.011a72.885 72.885 0 0 0 -44.696-34.497zm12.88 126.872a62.32 62.32 0 0 1 -47.845 6.445 62.954 62.954 0 0 1 -38.595-29.805c-17.487-30.546-7.11-69.756 23.132-87.4a62.931 62.931 0 0 1 86.44 23.359c17.487 30.541 7.114 69.751-23.132 87.401z"/><path d="m154.936 342.039a5 5 0 0 0 -6.838-1.8l-31.798 18.561a5 5 0 1 0 5.041 8.637l31.8-18.557a5 5 0 0 0 1.795-6.841z"/><path d="m158.466 358.354-31.795 18.557a5 5 0 1 0 5.041 8.637l31.8-18.557a5 5 0 1 0 -5.041-8.637z"/><path d="m388.919 205.479a5 5 0 0 0 -6.838-1.8l-31.8 18.556a5 5 0 1 0 5.041 8.637l31.8-18.557a5 5 0 0 0 1.797-6.836z"/><path d="m392.45 221.8-31.8 18.557a5 5 0 1 0 5.041 8.636l31.795-18.556a5 5 0 1 0 -5.041-8.637z"/><path d="m277.377 292.262-12.393 7.232-1.856-3.291 12.589-7.348a5 5 0 1 0 -5.041-8.636l-12.461 7.272-2.355-4.177 7.3-28.2a5 5 0 1 0 -9.68-2.506l-6.593 25.466-25.262-6.668a5 5 0 0 0 -2.551 9.669l28.249 7.456 2.255 4-12.6 7.355a5 5 0 1 0 5.041 8.636l12.474-7.28 1.856 3.292-12.671 7.395a5 5 0 1 0 5.041 8.636l12.542-7.319 4.115 7.3a5 5 0 0 0 8.711-4.912l-4.188-7.426 12.521-7.308a5 5 0 0 0 -5.04-8.636z"/></g></g></svg>