<svg height="512" viewBox="0 0 52 52" width="512" xmlns="http://www.w3.org/2000/svg"><path d="M37.447 2 9.694 18.023l4.774 2.775L42.221 4.774zM42.748 5.687 14.995 21.71l.018 6.31 27.752-16.023zM26.43 19.225l-9.453 5.457a.527.527 0 0 1-.526-.912l9.452-5.458a.526.526 0 1 1 .527.913zm3.48-1.003c-.918.531-1.809.036-1.809-1.026 0-.873.594-1.899 1.35-2.34.927-.531 1.8-.027 1.8 1.035.01.873-.585 1.89-1.34 2.331zM34.8 15.4c-.927.54-1.81.027-1.81-1.026-.008-.873.586-1.9 1.35-2.331.928-.54 1.801-.036 1.801 1.026 0 .873-.585 1.9-1.341 2.331zm4.88-2.813c-.92.532-1.811.036-1.811-1.026 0-.874.594-1.9 1.35-2.342.928-.53 1.81-.027 1.81 1.027 0 .874-.593 1.9-1.35 2.341zM42.769 13.212 15.016 29.235 15.075 50l27.752-16.023zM21.17 30.23l7.94-4.584h-1.34a.527.527 0 1 1 0-1.054h3.306c.368 0 .63.408.48.742l-1.307 2.922a.527.527 0 0 1-.696.266c-.266-.119-.385-.43-.266-.696l.643-1.437-8.233 4.754a.527.527 0 0 1-.527-.913zm3.99 4.007-2.17 3.76v.953l1.163-.672a.526.526 0 1 1 .528.912l-1.692.977v.977l1.164-.672a.526.526 0 1 1 .527.911l-1.69.978v1.45a.527.527 0 1 1-1.054 0v-.84l-1.163.672a.527.527 0 1 1-.528-.912l1.69-.978v-.977l-1.162.673a.527.527 0 1 1-.528-.912l1.69-.978v-1.397l-2.81-1.6a.527.527 0 0 1 .52-.916l2.623 1.493 1.98-3.429a.527.527 0 1 1 .912.527zm11.517-1.257-7.283 4.257h1.36a.527.527 0 1 1 0 1.053h-3.306a.53.53 0 0 1-.48-.741l1.307-2.923c.12-.266.432-.384.697-.266.265.12.384.431.265.697L28.6 36.48l7.545-4.41a.527.527 0 1 1 .532.91zm.871-5.213v1.246a.527.527 0 1 1-1.054 0v-.826c-.032.002-.067.015-.1.015-.227 0-.441-.054-.632-.164-.431-.248-.68-.747-.682-1.369a.527.527 0 0 1 .525-.528h.002c.29 0 .526.235.527.525 0 .23.06.405.154.459.075.043.243.04.488-.102.618-.356 1.158-1.291 1.156-2 0-.231-.06-.409-.155-.464-.075-.042-.242-.04-.483.1-.544.314-1.106.353-1.54.102-.433-.248-.682-.749-.683-1.373-.003-.987.605-2.126 1.423-2.741V19.4a.527.527 0 1 1 1.054 0v.806c.269-.02.524.03.745.157.433.25.682.75.684 1.374a.527.527 0 0 1-.526.529h-.001a.527.527 0 0 1-.527-.526c0-.231-.06-.409-.155-.463-.075-.044-.243-.04-.483.1-.631.364-1.163 1.283-1.16 2.007 0 .231.06.408.154.463.075.043.244.04.488-.102.54-.313 1.102-.351 1.536-.1.432.249.681.75.683 1.374.003.992-.613 2.137-1.438 2.747zM9.173 18.939l.08 28.284 4.768 2.771-.08-28.284z"/></svg>