<svg id="Layer_1" enable-background="new 0 0 52 52" height="512" viewBox="0 0 52 52" width="512" xmlns="http://www.w3.org/2000/svg"><g id="_x33_4"><path d="m37.446701 2-27.7524604 16.0233231 4.7739162 2.7742157 27.752718-16.0230647z"/><path d="m42.7476807 5.6871233c-10.3578491 5.9801292-17.3546772 10.019721-27.7524605 16.0229378-.0007725-.2720203.0173626 6.2028255.017684 6.309639 10.3437014-5.971962 17.3652878-10.0258942 27.7522659-16.0228729zm-16.3165646 13.5379744-9.4526596 5.4573746c-.2507343.1448193-.5737495.0598049-.7197266-.1929226-.1455917-.2520847-.0591621-.5741348.1929226-.7197266l9.4526577-5.4573746c.2500267-.1461067.5736217-.0596771.7197285.1929207.1455917.2520847.0591621.5741367-.1929226.7197285zm3.4800549-1.0026799c-.9180527.5309849-1.8091583.0359478-1.8091583-1.0261517 0-.8730354.5940704-1.8991232 1.350132-2.3401432.9271183-.5311136 1.8001537-.0270729 1.8001537 1.0350266.0090045.8731003-.5850029 1.8902493-1.3411274 2.3312683zm4.8887672-2.8231554c-.9270515.5399885-1.8091545.0269451-1.8091545-1.0261517-.0090027-.8731003.5850677-1.8991871 1.350132-2.3312683.9271164-.5399885 1.8001518-.0359478 1.8001518 1.0261517 0 .8731003-.5850029 1.8991881-1.3411293 2.3312683zm4.8791237-2.8129301c-.9185638.5313711-1.8100548.0360765-1.8100548-1.0265369 0-.8735504.5943909-1.9001522 1.3507729-2.3413649.9275703-.5313072 1.8100586-.027009 1.8100586 1.0266018 0 .8734865-.5943299 1.9000883-1.3507767 2.3413z"/><path d="m42.7687721 13.2115927c-10.3578491 5.9801283-17.3546753 10.019721-27.7524595 16.0229368.0157557 5.5707493.0355616 12.5903416.0586481 20.7654705l27.7524586-16.0228081zm-21.5985069 17.0182848 7.9391861-4.5838242h-1.338686c-.2911835 0-.526804-.2356224-.526804-.5268059s.2356205-.5268059.526804-.5268059h3.304882c.3679008 0 .6309185.4070663.4810181.7418499l-1.3077526 2.921608c-.1169758.2607021-.423914.3860378-.6960621.265976-.265976-.1188393-.3848152-.4306011-.265976-.6960621l.6432667-1.4368191-8.2330723 4.7535324c-.2507343.1448193-.5737495.0598049-.7197266-.1929226-.1455916-.2520847-.059162-.5741348.1929227-.7197265zm3.989624 4.0071182-2.1704998 3.7595329v.9535484l1.1631908-.6725273c.2515697-.1476479.5741348-.0596771.7197266.1918945.1461067.2520828.0596771.5741348-.1918926.7197266l-1.6910248.9777298v.9773407l1.1631908-.6725273c.2515697-.1466179.5741348-.0601883.7197266.1918945.1461067.2520828.0596771.5741348-.1918926.7197266l-1.6910248.9777298v1.4500008c0 .2911835-.2356224.5268059-.5268059.5268059s-.5268059-.2356224-.5268059-.5268059v-.8407555l-1.1631889.6725273c-.2507992.1455269-.5743294.0604477-.7197285-.1918945-.1461067-.2520828-.0596771-.5741348.1918926-.7197266l1.6910248-.977726v-.9773445l-1.1631889.6725273c-.2507992.1455269-.5743294.0604477-.7197285-.1918945-.1461067-.2520828-.0596771-.5741348.1918926-.7197266l1.6910248-.9777298v-1.3976555l-2.8115139-1.6003494c-.2525997-.1440506-.3410873-.4655838-.1970387-.7187004.1435337-.2531128.4650707-.3421135.7186985-.1970367l2.6221943 1.4929581 1.9791222-3.4283485c.1450768-.2520866.4676437-.3385162.7197266-.1929245.2520848.1455917.3385144.4676437.1929226.7197303zm11.5166664-1.2568245-7.2829304 4.2566299h1.3599701c.2911835 0 .5268059.2356224.5268059.5268059s-.2356224.5268059-.5268059.5268059h-3.3053951c-.3725967 0-.6380577-.3906021-.4810181-.7418518l1.3082676-2.922123c.1188393-.265976.4311161-.3843002.6960621-.265976.265976.1188431.3848152.430603.265976.696064l-.6376076 1.4237633 7.5447273-4.4096794c.2536278-.1471367.575161-.0612221.7207527.1888046.1466218.2515717.0622521.5741349-.1888046.7207566zm.8714943-5.2131996v1.245697c0 .2911835-.2356224.5268059-.5268059.5268059s-.5268059-.2356224-.5268059-.5268059v-.8255768c-.0328636.0021858-.0673943.0147896-.0998039.0147896-.2273941 0-.4419212-.054018-.6322708-.1635971-.4316292-.2484837-.6806297-.747509-.6821709-1.3689747-.00103-.2911835.2345924-.527319.5252609-.5283489h.001545c.2901535 0 .5257759.2351093.5268021.5252628.000515.2289333.0596771.4043636.1538239.4583817.0751114.0432148.2433395.0406437.4887352-.101347.6178665-.3565197 1.1580467-1.2912903 1.1559906-2.0002155-.000515-.2315063-.0601921-.4089928-.1553688-.4640408-.0745964-.0421848-.2423096-.0396137-.4830742.0998058-.5443001.314333-1.1060867.3529167-1.5402908.1023769-.4321442-.2484837-.6811409-.749052-.6826859-1.3730907-.0027657-.9870529.6052589-2.1263847 1.4235077-2.7414188v-1.2461471c0-.2911835.2356224-.5268059.5268059-.5268059s.5268059.2356224.5268059.5268059v.8067989c.2685471-.020771.5235252.0296459.7454491.1567802.4321442.2489986.6816559.749567.6832008 1.3741188.00103.2911835-.2345924.5273209-.5252609.5283489-.000515 0-.00103 0-.001545 0-.2901535 0-.5257759-.2351074-.5268059-.5252609-.000515-.2315063-.0601921-.4089947-.15485-.4635277-.0751114-.0437298-.2428246-.0390987-.483593.0998039-.6307259.3642368-1.1621628 1.2835751-1.1601028 2.0074177.000515.2309914.0596771.4084797.1543388.4630127.0751076.0426998.2443657.0390987.4882202-.1018639.5406952-.3133049 1.1014557-.3513737 1.535656-.1003189.4326591.2489986.6816597.7500801.6832008 1.3741188.0028305.992262-.6129112 2.1369325-1.4379082 2.7470151z"/><path d="m9.1725798 18.938673c.0131187 4.6144981.0671368 23.6690083.0802555 28.2842808l4.7685146 2.771389c-.0097742-3.4600563-.0731812-25.8925018-.0799341-28.2843475z"/></g></svg>